<?xml version="1.0" standalone="no"?>
<!DOCTYPE svg PUBLIC "-//W3C//DTD SVG 20010904//EN"
 "http://www.w3.org/TR/2001/REC-SVG-20010904/DTD/svg10.dtd">
<svg version="1.0" xmlns="http://www.w3.org/2000/svg"
 width="400.000000pt" height="400.000000pt" viewBox="0 0 400.000000 400.000000"
 preserveAspectRatio="xMidYMid meet">
<metadata>
Created by potrace 1.11, written by Peter Selinger 2001-2013
</metadata>
<g transform="translate(0.000000,400.000000) scale(0.100000,-0.100000)"
fill="#000000" stroke="none">
<path d="M1759 3979 c-102 -17 -267 -64 -339 -96 -199 -88 -378 -205 -288
-188 23 5 119 -25 141 -44 8 -6 36 -14 62 -18 42 -5 47 -3 43 13 -2 15 -14 20
-51 22 -42 3 -47 5 -36 18 16 20 2 32 -40 36 l-35 3 43 30 c60 41 114 42 147
2 32 -37 80 -44 111 -15 14 13 28 18 39 14 30 -11 -38 -66 -82 -66 -33 0 -35
-2 -32 -27 3 -26 5 -27 52 -24 27 1 55 9 63 17 8 8 25 14 38 14 12 0 26 7 29
16 8 22 8 24 -8 24 -23 0 -28 17 -11 33 13 14 41 16 119 8 5 -1 -3 -10 -18
-22 -26 -21 -34 -53 -16 -64 6 -4 22 -8 35 -11 23 -4 25 -1 25 34 0 32 5 41
28 52 62 30 117 29 200 -6 68 -28 72 -31 72 -61 0 -28 3 -33 25 -33 23 0 24
-2 13 -25 -9 -19 -19 -25 -45 -25 -26 0 -36 -6 -45 -25 -6 -14 -17 -24 -24
-21 -6 2 -40 10 -74 17 l-61 12 52 29 c67 36 65 34 45 57 -25 28 -110 18 -147
-15 -14 -13 -35 -24 -48 -24 -16 0 -21 -5 -19 -18 2 -11 -1 -18 -5 -18 -5 1
-13 -7 -18 -16 -14 -24 -36 -23 -44 3 -9 28 -38 20 -135 -35 -69 -39 -75 -44
-72 -71 4 -37 36 -63 82 -67 32 -3 35 -6 38 -38 1 -19 5 -41 7 -48 7 -20 40 2
55 37 9 22 23 34 54 44 l41 14 3 56 c4 75 24 90 100 74 52 -11 52 -11 52 -49
0 -45 12 -48 70 -18 l40 20 0 -44 c0 -39 4 -47 29 -62 49 -29 47 -75 -5 -88
-20 -5 -23 -10 -15 -20 7 -8 25 -19 41 -26 19 -8 30 -20 30 -32 0 -17 -4 -19
-32 -13 -79 17 -89 28 -65 65 10 17 9 22 -3 30 -10 7 -16 5 -18 -4 -5 -22 -68
-25 -86 -4 -20 22 -49 23 -67 2 -11 -14 -10 -18 6 -30 10 -8 25 -14 33 -14 12
0 12 -3 2 -15 -9 -11 -16 -12 -31 -2 -17 11 -25 6 -66 -36 -25 -26 -60 -55
-77 -63 -46 -24 -146 -125 -146 -149 0 -13 -15 -30 -43 -47 -23 -15 -57 -40
-76 -56 -30 -27 -33 -34 -30 -76 4 -50 3 -52 -36 -34 -18 8 -25 19 -25 40 0
31 6 30 -112 29 -102 0 -164 -30 -195 -93 -32 -64 -36 -84 -22 -123 10 -27 19
-35 39 -36 14 -1 32 -2 40 -3 8 0 41 16 73 37 49 32 58 35 64 22 3 -9 -2 -33
-11 -52 -9 -20 -16 -37 -14 -38 2 -2 21 -6 42 -9 22 -4 41 -8 42 -9 2 -1 4
-25 5 -52 3 -90 3 -90 75 -101 35 -5 64 -7 64 -4 0 3 17 24 38 47 l37 42 48
-11 c32 -6 53 -18 63 -33 13 -19 23 -23 60 -22 25 1 48 8 53 16 13 20 45 -1
81 -54 30 -43 33 -45 80 -45 48 0 50 -2 70 -40 11 -21 20 -55 20 -74 0 -33 2
-35 62 -55 37 -13 87 -21 125 -21 62 0 64 -1 84 -34 13 -23 31 -37 51 -41 27
-6 30 -10 24 -36 -3 -17 -21 -50 -41 -76 -22 -28 -35 -58 -36 -77 -1 -31 -5
-64 -14 -123 -8 -46 -47 -73 -104 -73 -40 0 -49 -4 -63 -28 -14 -23 -15 -36
-6 -76 10 -46 9 -50 -21 -90 -18 -22 -48 -64 -67 -93 -37 -53 -98 -92 -153
-97 -32 -4 -40 -32 -12 -41 26 -8 26 -20 0 -46 -22 -22 -19 -46 6 -54 8 -3 21
-7 29 -9 12 -4 12 -13 4 -46 -10 -39 -9 -43 21 -74 50 -51 40 -67 -35 -56 -57
9 -110 57 -158 143 -35 62 -37 72 -32 128 5 54 3 65 -19 93 -26 35 -30 67 -16
128 7 31 6 38 -8 43 -14 4 -16 24 -16 139 -1 153 -1 153 -98 199 -32 14 -50
30 -54 46 -3 12 -32 56 -63 95 l-58 73 6 72 c5 72 5 72 49 102 29 21 42 36 39
46 -3 8 -6 29 -6 47 l0 33 -62 7 c-61 6 -65 8 -113 61 -42 46 -58 57 -102 67
-40 9 -53 16 -55 32 -3 23 -37 35 -48 16 -5 -8 -24 -7 -73 6 -58 14 -69 21
-92 56 -22 33 -25 45 -17 63 9 19 4 33 -33 87 -28 42 -46 81 -50 111 -6 38
-11 47 -27 47 -18 0 -20 -4 -13 -47 4 -27 20 -68 36 -92 33 -51 37 -81 12 -81
-27 0 -37 10 -72 66 -26 43 -31 61 -31 112 0 57 -1 61 -33 79 -30 18 -33 23
-30 64 l4 44 -15 -33 c-32 -68 -78 -230 -95 -331 -23 -132 -25 -361 -5 -490
68 -445 320 -842 689 -1086 190 -125 442 -224 635 -249 127 -16 182 -20 258
-19 49 1 80 -2 77 -8 -4 -5 -2 -9 3 -9 6 0 12 6 15 13 3 7 24 14 48 16 143 8
384 78 540 157 171 86 300 181 437 323 81 84 94 103 70 100 -34 -4 -38 2 -38
52 0 40 -6 60 -30 94 -26 37 -30 53 -30 109 0 52 -4 68 -18 78 -33 23 -34 59
-2 127 l30 63 -55 96 c-54 97 -54 97 -48 163 l5 66 -53 6 c-29 4 -56 12 -60
18 -3 6 -25 15 -47 19 -34 6 -44 4 -59 -12 -14 -15 -29 -19 -75 -17 -32 1 -61
-1 -65 -4 -9 -9 -73 -9 -73 1 0 4 -32 41 -70 82 l-69 75 -1 71 c0 55 4 73 15
78 23 8 19 53 -5 59 -13 3 -20 14 -20 29 0 19 14 34 57 64 104 71 113 81 113
128 0 39 3 44 39 64 27 15 56 22 95 22 32 0 69 6 84 14 15 7 66 16 115 20 l87
7 0 -44 0 -45 68 -18 c37 -9 72 -21 77 -25 6 -4 19 -9 30 -11 15 -2 19 3 20
22 0 22 5 25 44 28 32 2 49 -2 65 -16 34 -31 58 -39 116 -36 30 1 58 3 62 3 3
1 -3 30 -15 66 l-21 65 -41 0 c-46 0 -85 31 -85 67 0 12 -3 28 -6 37 -11 29
-51 -9 -59 -56 l-7 -40 -30 30 c-18 17 -32 43 -34 62 -5 41 -8 46 -54 79 -33
24 -48 27 -92 22 -3 -1 -1 -14 4 -29 7 -18 29 -39 60 -56 36 -20 47 -31 39
-39 -6 -6 -11 -21 -11 -33 0 -25 -28 -39 -59 -29 -33 10 -32 30 2 30 48 0 41
17 -23 60 -33 22 -62 48 -66 58 -5 16 -7 16 -34 -3 -18 -13 -38 -19 -52 -15
-19 4 -31 -5 -65 -51 -24 -31 -43 -63 -43 -70 0 -8 -12 -15 -27 -16 -16 0 -41
-2 -58 -4 -55 -5 -83 14 -93 60 -17 83 30 115 134 92 28 -6 32 -4 36 18 4 17
0 26 -12 29 -13 3 -16 12 -12 33 6 34 18 44 55 44 21 0 35 10 59 45 33 47 41
50 126 45 30 -1 32 0 32 34 0 39 -5 41 -45 26 -24 -9 -28 -7 -38 20 -6 17 -19
30 -28 30 -9 0 -20 7 -23 15 -9 25 15 53 60 70 60 23 64 43 15 86 -141 126
-399 257 -609 310 -203 51 -455 62 -653 28z m1055 -521 c3 -7 7 -25 10 -40 4
-15 22 -43 41 -62 32 -32 33 -35 16 -50 -11 -10 -36 -16 -64 -16 -43 0 -47 2
-47 24 0 16 7 27 20 31 29 9 25 28 -10 48 -17 10 -30 27 -30 37 0 31 56 55 64
28z m-56 -84 c2 -16 -7 -28 -31 -43 -37 -23 -67 -27 -67 -11 0 18 29 68 42 73
26 11 53 2 56 -19z m-838 -174 c0 -5 -7 -10 -15 -10 -8 0 -15 -6 -15 -14 0
-19 -30 -29 -46 -15 -14 11 -9 33 5 24 5 -2 17 2 27 10 22 17 44 19 44 5z
m-120 -35 c0 -8 -7 -15 -15 -15 -16 0 -20 12 -8 23 11 12 23 8 23 -8z"/>
<path d="M1108 3623 c-10 -2 -18 -13 -18 -24 0 -15 7 -19 34 -19 33 0 66 21
66 41 0 9 -50 11 -82 2z"/>
<path d="M1125 3535 c-30 -9 -36 -14 -23 -19 27 -12 83 -3 86 15 3 19 -10 20
-63 4z"/>
<path d="M3170 3467 c0 -33 -4 -39 -35 -54 -55 -26 -45 -43 24 -43 50 0 61 3
74 23 14 22 13 26 -24 68 l-39 44 0 -38z"/>
<path d="M1256 3367 c-15 -11 -17 -17 -7 -35 18 -34 53 -26 63 15 4 14 0 24
-9 27 -21 8 -27 8 -47 -7z"/>
<path d="M668 3238 c-8 -13 -20 -34 -27 -48 -9 -19 -5 -17 18 10 17 19 31 41
31 48 0 18 -6 15 -22 -10z"/>
<path d="M1353 3250 c-29 -12 -30 -40 -2 -40 20 0 20 -1 -5 -31 -29 -34 -34
-64 -11 -73 10 -3 25 10 45 39 28 40 29 45 13 54 -15 8 -13 10 12 9 17 0 36 0
43 1 15 1 16 31 1 31 -5 0 -7 5 -4 10 8 12 -61 12 -92 0z"/>
<path d="M1470 3226 c0 -9 7 -16 16 -16 9 0 14 5 12 12 -6 18 -28 21 -28 4z"/>
<path d="M1449 3196 c-6 -10 -7 -46 -1 -49 15 -9 52 13 52 31 0 14 -7 20 -25
20 -14 0 -25 -1 -26 -2z"/>
<path d="M1535 3191 c-7 -12 12 -24 25 -16 11 7 4 25 -10 25 -5 0 -11 -4 -15
-9z"/>
<path d="M1510 3152 c0 -28 14 -42 41 -42 22 0 29 5 29 20 0 11 -6 20 -12 20
-7 0 -23 3 -35 6 -13 4 -23 2 -23 -4z"/>
<path d="M3420 3135 c-9 -65 -6 -75 17 -75 13 0 23 3 23 8 -1 13 -39 77 -40
67z"/>
<path d="M1445 3120 c-4 -6 -10 -8 -15 -5 -4 3 -10 -4 -13 -15 -4 -16 0 -20
22 -20 29 0 51 16 51 37 0 15 -36 18 -45 3z"/>
<path d="M1840 824 c0 -6 -10 -9 -24 -7 -13 3 -27 0 -30 -6 -4 -5 -14 -7 -23
-4 -13 5 -15 2 -10 -13 7 -19 7 -19 -8 0 -11 14 -15 16 -15 5 0 -12 -2 -12
-10 1 -5 8 -10 10 -10 4 0 -6 -11 -12 -25 -13 -48 -3 -55 -4 -55 -12 0 -4 -9
-6 -20 -4 -14 3 -25 -5 -35 -23 -8 -15 -14 -23 -15 -18 0 5 -10 1 -21 -10 -16
-14 -21 -15 -17 -4 2 8 14 19 26 25 12 5 22 13 22 18 0 4 -9 3 -20 -3 -11 -6
-20 -8 -20 -5 0 4 -12 -3 -26 -14 -15 -11 -30 -18 -35 -15 -5 3 -18 -2 -30
-10 -12 -8 -29 -12 -38 -9 -14 4 -14 3 -1 -6 8 -6 13 -11 10 -12 -3 0 -15 -2
-27 -3 -13 -2 -26 -6 -30 -11 -5 -4 2 -5 15 -2 15 3 32 -2 50 -18 20 -16 33
-21 43 -14 12 7 12 9 -1 10 -8 1 -18 1 -22 0 -5 0 -8 3 -8 7 0 17 13 21 31 11
14 -7 27 -5 48 6 17 8 32 12 34 7 6 -8 -13 -26 -33 -30 -8 -2 -17 -7 -20 -11
-3 -4 -13 -10 -23 -14 -10 -4 -15 -11 -12 -17 3 -5 -1 -10 -9 -10 -9 0 -16 -5
-16 -11 0 -5 -5 -7 -12 -3 -7 4 -8 3 -4 -4 5 -9 14 -7 31 4 14 9 22 20 19 25
-3 5 2 9 10 9 8 0 21 7 30 15 13 13 15 13 21 -5 3 -11 11 -20 17 -20 6 0 6 6
-2 15 -10 13 -10 19 2 33 9 9 13 24 10 32 -5 13 -3 13 13 0 11 -9 16 -10 11
-2 -11 18 9 15 35 -7 21 -17 22 -21 9 -37 -9 -11 -10 -15 -2 -10 7 4 12 2 12
-6 0 -10 2 -10 9 1 5 8 7 20 5 26 -4 8 4 11 22 9 17 -1 34 6 50 21 12 12 26
20 29 17 3 -4 3 1 -1 11 -5 13 -2 16 12 11 16 -5 16 -4 4 5 -8 6 -12 11 -7 12
4 1 10 2 15 3 4 1 13 5 20 10 11 7 12 4 4 -11 -10 -18 -7 -19 44 -18 43 2 52
-1 44 -11 -8 -8 -8 -14 0 -19 5 -3 10 -11 10 -16 0 -6 -4 -7 -10 -4 -6 4 -7
-1 -3 -11 6 -15 7 -15 15 0 6 11 6 22 -1 30 -8 10 -7 17 5 27 13 11 15 11 14
-2 -4 -28 0 -36 26 -47 14 -7 23 -8 20 -3 -3 5 1 12 10 15 24 9 29 7 16 -6 -9
-9 -7 -14 6 -24 14 -10 15 -15 5 -25 -11 -11 -13 -10 -13 4 0 9 -5 17 -10 17
-7 0 -7 -6 0 -20 11 -21 40 -17 40 5 0 7 6 16 13 19 6 3 3 4 -7 3 -10 -1 -21
3 -23 10 -3 8 7 10 29 7 30 -3 31 -3 9 6 -31 14 -21 23 11 11 24 -9 32 -40 15
-57 -4 -4 -7 -12 -7 -18 0 -6 7 -3 15 7 7 11 11 25 8 33 -5 14 12 20 20 7 2
-5 2 -3 1 4 -2 7 10 19 26 27 17 8 30 10 30 5 0 -5 -10 -14 -22 -19 -20 -8
-18 -9 10 -6 25 4 32 1 28 -9 -3 -9 0 -12 10 -8 12 4 12 8 2 21 -11 13 -10 15
5 9 10 -4 21 -7 23 -7 3 0 2 -5 -2 -11 -4 -8 0 -8 15 0 22 12 41 7 41 -9 0 -5
-6 -7 -12 -5 -28 10 -64 -41 -46 -66 8 -11 9 -11 4 3 -6 21 27 64 42 54 18
-11 14 -26 -5 -20 -15 5 -15 4 -3 -4 17 -13 33 -5 26 14 -3 7 0 16 6 20 7 4 5
10 -5 16 -20 11 -11 39 10 31 12 -5 12 -7 1 -15 -9 -6 -5 -7 12 -3 20 6 23 5
13 -5 -9 -10 -7 -17 9 -30 19 -15 19 -17 5 -23 -11 -4 -17 -1 -17 8 0 8 -5 15
-10 15 -7 0 -7 -7 0 -21 11 -19 13 -19 35 -5 18 12 25 12 28 3 3 -6 6 -4 6 7
1 11 -4 16 -13 13 -14 -6 -36 10 -36 26 0 5 7 4 15 -3 9 -7 18 -10 22 -6 3 3
1 6 -6 6 -7 0 -10 4 -6 10 3 5 12 7 19 4 21 -8 26 10 11 39 -12 23 -11 25 6
24 11 -1 18 -6 15 -12 -2 -5 1 -18 5 -27 7 -12 3 -21 -11 -31 -11 -7 -17 -17
-14 -20 4 -3 15 4 24 16 10 12 21 19 25 16 3 -4 -5 -19 -19 -34 -15 -16 -26
-33 -26 -39 0 -6 7 -2 15 9 8 11 24 31 35 44 20 22 23 23 37 8 13 -12 14 -19
5 -30 -7 -8 -8 -18 -4 -22 4 -5 -1 -5 -11 -2 -10 4 -16 3 -12 -2 3 -5 0 -11
-7 -13 -7 -3 -4 -7 7 -12 11 -4 16 -4 12 0 -4 4 2 14 13 21 11 8 17 19 14 25
-5 8 -1 9 10 5 11 -5 15 -3 10 5 -4 6 1 17 11 25 17 12 16 13 -13 9 -18 -2
-35 0 -38 5 -6 10 -3 11 49 14 32 1 36 -1 31 -17 -5 -16 5 -23 29 -19 4 0 7
-3 7 -7 0 -19 -15 -21 -37 -7 -13 9 -23 12 -23 8 0 -5 9 -14 21 -21 16 -10 24
-11 35 -1 16 13 16 13 32 -16 6 -11 12 -15 12 -9 0 6 -9 23 -20 37 -24 30 -26
45 -5 27 8 -7 21 -10 30 -7 8 4 28 -5 44 -18 16 -14 32 -25 37 -25 4 0 -1 6
-12 14 -10 8 -16 18 -12 22 5 4 16 -3 27 -14 10 -12 22 -22 26 -22 5 0 1 8 -8
18 -10 10 -15 22 -12 25 3 4 2 5 -1 2 -4 -2 -16 1 -28 7 -11 7 -24 11 -28 10
-5 -1 -8 3 -8 10 0 6 -6 3 -14 -7 -14 -19 -46 -15 -46 6 0 9 3 9 14 0 10 -9
15 -8 19 3 4 10 1 13 -9 9 -8 -3 -14 1 -14 8 0 9 -3 10 -8 4 -12 -17 -43 -14
-40 3 2 9 -3 17 -9 18 -7 1 -14 2 -15 4 -2 1 -10 3 -18 5 -8 2 -25 7 -37 11
-14 4 -23 2 -23 -5 0 -5 6 -9 13 -7 6 1 9 1 5 -1 -4 -3 -10 -4 -14 -3 -4 1
-11 -4 -16 -12 -6 -9 -7 -6 -3 10 4 13 2 22 -5 22 -6 0 -9 4 -5 9 3 6 -3 8
-15 6 -11 -2 -22 0 -25 4 -2 5 -18 7 -35 6 -16 -1 -30 2 -30 8 0 6 -11 -4 -24
-21 -19 -27 -25 -30 -30 -16 -4 10 -12 14 -24 9 -13 -5 -14 -4 -5 6 10 10 16
9 29 -2 10 -8 15 -9 11 -2 -4 6 -2 15 4 19 8 5 9 3 4 -7 -6 -11 -5 -12 5 -2
16 15 11 22 -19 28 -12 2 -19 0 -16 -6 8 -12 3 -12 -32 6 -31 15 -58 16 -80 2
-7 -5 -19 -5 -25 0 -18 11 -238 11 -245 0 -3 -5 -9 -3 -14 4 -5 8 -9 9 -9 3z
m269 -22 c6 -10 10 -10 19 1 10 11 59 16 70 7 2 -2 15 -6 29 -9 4 0 2 -6 -5
-13 -8 -8 -8 -17 -1 -30 11 -20 -3 -48 -24 -48 -5 0 -3 8 6 18 12 13 13 21 6
32 -9 13 -10 13 -6 -1 3 -9 -1 -16 -8 -16 -10 0 -11 5 -4 19 9 17 5 22 -14 19
-5 -1 -5 3 -2 10 4 6 -7 4 -23 -5 -20 -10 -33 -12 -37 -6 -4 6 -11 8 -16 5 -5
-3 -6 2 -3 12 5 15 4 16 -5 3 -10 -13 -12 -13 -22 0 -9 13 -10 13 -6 -2 4 -12
1 -16 -14 -13 -11 2 -17 1 -15 -4 3 -4 1 -13 -3 -20 -6 -10 -10 -9 -14 3 -3 8
-2 18 3 21 6 4 10 11 10 18 0 6 -7 2 -15 -9 -13 -16 -14 -16 -9 -1 4 10 1 17
-6 17 -6 0 -9 -4 -5 -9 3 -6 -4 -8 -15 -6 -13 3 -18 0 -14 -7 5 -7 2 -8 -6 -3
-9 6 -11 4 -5 -5 5 -9 4 -11 -3 -6 -8 5 -10 1 -6 -11 5 -17 5 -17 -6 0 -7 11
-20 16 -36 13 -13 -3 -22 -1 -19 3 2 5 -8 7 -24 6 -22 -2 -28 1 -24 12 4 11 8
11 13 3 5 -9 9 -8 13 2 7 19 234 19 246 0z m-281 -10 c-2 -11 4 -17 19 -17 12
0 24 -3 28 -7 4 -3 19 -4 33 -2 20 3 23 2 12 -5 -8 -5 -18 -7 -22 -5 -4 3 -5
-1 -3 -8 4 -10 -7 -13 -42 -13 -40 0 -48 3 -45 18 3 17 -9 23 -22 10 -4 -5
-11 -8 -14 -8 -16 0 -51 -32 -44 -40 4 -5 1 -5 -6 -1 -7 4 -9 13 -5 19 12 19
12 36 1 44 -7 4 -8 1 -3 -7 5 -8 4 -11 -3 -6 -7 4 -10 -1 -7 -14 3 -14 0 -20
-8 -17 -7 2 -12 9 -12 15 0 5 -4 14 -9 19 -6 5 -6 2 -1 -7 7 -13 6 -13 -7 -2
-13 10 -17 10 -21 0 -2 -7 -8 -10 -12 -5 -10 8 -2 18 17 21 7 1 19 6 27 10 10
6 12 5 7 -2 -4 -7 -3 -12 3 -12 5 0 12 4 15 9 7 10 31 9 42 -2 13 -13 26 -7
20 9 -3 8 -2 12 3 9 5 -3 12 -2 15 3 2 4 14 8 26 9 14 1 20 -3 18 -15z m173
-18 c12 -15 11 -16 -9 -10 -15 5 -22 3 -22 -5 0 -7 3 -10 6 -6 3 3 17 2 30 -3
19 -7 26 -5 33 9 12 22 72 23 78 1 4 -13 3 -13 -7 0 -9 13 -10 12 -8 -5 4 -28
-26 -30 -41 -3 -6 13 -9 15 -6 5 3 -12 1 -16 -7 -11 -7 5 -8 3 -3 -6 6 -9 4
-11 -4 -5 -10 6 -11 3 -2 -14 7 -13 8 -21 2 -21 -6 0 -15 9 -21 20 -6 11 -15
18 -20 15 -4 -3 -11 1 -13 7 -4 8 -8 4 -12 -9 -10 -32 -26 -29 -21 3 4 22 23
54 31 54 1 0 9 -7 16 -16z m377 6 c1 -1 6 -3 11 -4 23 -3 39 -60 20 -71 -5 -4
-10 0 -10 7 -3 33 -4 38 -10 35 -3 -1 -13 4 -21 11 -13 10 -17 10 -21 -2 -4
-9 -2 -18 4 -22 6 -3 8 -12 5 -19 -3 -8 0 -16 7 -19 7 -3 2 -3 -10 0 -13 3
-23 1 -23 -5 0 -6 -16 -1 -35 10 -30 18 -36 19 -41 6 -8 -22 -32 -29 -55 -16
-13 7 -24 7 -32 1 -9 -8 -12 -3 -14 15 -1 19 1 22 8 12 5 -8 9 -9 9 -4 0 6 -4
17 -10 25 -6 9 -5 17 3 23 8 6 7 7 -3 4 -8 -2 -14 -10 -12 -16 4 -20 -19 -53
-33 -47 -7 2 -16 -2 -19 -10 -8 -20 -23 -17 -36 7 -15 26 -7 34 19 19 12 -6
21 -7 21 -3 1 19 43 56 65 59 21 2 23 0 15 -16 -14 -26 -12 -33 6 -26 14 5 15
4 5 -8 -20 -24 6 -30 34 -7 15 11 21 22 15 26 -13 8 -13 25 1 25 5 0 8 -4 5
-9 -13 -21 24 -18 37 3 12 18 23 22 54 20 21 -1 39 -3 41 -4z m-758 -16 c0 -2
-9 -8 -20 -14 -15 -8 -18 -8 -14 3 4 11 34 21 34 11z m-90 -17 c0 -2 -10 -12
-22 -23 l-23 -19 19 23 c18 21 26 27 26 19z m165 -26 c32 -27 22 -44 -27 -46
-22 -1 -44 7 -65 23 -18 13 -33 19 -33 13 0 -7 -3 -10 -8 -8 -4 3 -25 -3 -46
-14 -30 -14 -42 -16 -53 -7 -10 8 -17 8 -25 0 -14 -14 -28 -16 -28 -4 0 11 56
43 63 35 12 -12 52 -9 70 5 9 9 17 12 17 8 0 -4 12 0 27 7 37 20 77 16 108
-12z m247 7 c-4 -25 19 -34 35 -13 9 14 13 15 13 4 0 -12 2 -12 10 1 8 12 9 9
8 -12 -2 -20 -5 -24 -14 -17 -9 7 -20 7 -35 -1 -17 -10 -24 -9 -37 4 -13 13
-14 16 -2 16 11 0 11 3 2 12 -17 17 -15 30 6 26 9 -2 16 -11 14 -20z m546 10
c-6 -17 -68 -53 -68 -40 0 16 30 43 41 37 5 -4 9 -1 9 4 0 6 5 11 11 11 6 0 9
-6 7 -12z m41 -4 c7 5 9 1 5 -9 -5 -12 -9 -13 -20 -4 -11 9 -14 8 -14 -1 0 -8
-2 -11 -5 -8 -3 3 -2 13 1 22 5 13 9 14 14 6 4 -7 13 -10 19 -6z m41 -31 c-1
-18 -18 -35 -24 -24 -4 6 -2 11 4 11 6 0 8 5 5 10 -3 6 -1 10 4 10 6 0 11 -3
11 -7z m95 -23 c3 -5 1 -10 -4 -10 -6 0 -11 5 -11 10 0 6 2 10 4 10 3 0 8 -4
11 -10z"/>
<path d="M1870 798 c0 -4 3 -7 8 -7 4 1 9 0 12 -1 18 -7 52 -5 59 4 7 8 -4 11
-35 12 -24 0 -44 -3 -44 -8z"/>
<path d="M2130 795 c-11 -13 -10 -14 4 -9 9 3 16 10 16 15 0 13 -6 11 -20 -6z"/>
<path d="M2180 807 c0 -2 6 -10 14 -16 11 -9 16 -9 22 1 4 7 4 10 -1 6 -4 -4
-14 -3 -22 3 -7 6 -13 9 -13 6z"/>
<path d="M1779 776 c-9 -19 -9 -20 4 -3 13 16 16 16 27 2 21 -25 51 -38 62
-27 6 6 5 12 -3 17 -8 5 -10 4 -5 -3 10 -17 -6 -15 -32 4 -12 8 -20 19 -18 23
3 4 -2 8 -10 8 -8 0 -20 -10 -25 -21z"/>
<path d="M1736 767 c3 -10 9 -15 12 -12 3 3 0 11 -7 18 -10 9 -11 8 -5 -6z"/>
<path d="M2285 754 c-13 -20 -12 -24 2 -36 12 -9 15 -9 9 0 -11 18 5 14 20 -5
13 -17 14 -17 7 2 -6 18 -5 19 13 5 17 -14 18 -14 6 1 -7 9 -12 21 -11 25 6
37 -24 42 -46 8z m38 -12 c-5 -11 -8 -12 -11 -4 -3 10 -7 10 -20 0 -14 -12
-14 -11 -2 9 15 24 42 20 33 -5z"/>
<path d="M2120 735 c-7 -9 -11 -17 -9 -20 3 -2 10 5 17 15 14 24 10 26 -8 5z"/>
<path d="M2234 716 c-10 -8 -17 -16 -14 -19 3 -2 14 4 24 14 23 22 18 25 -10
5z"/>
<path d="M2067 709 c7 -7 15 -10 18 -7 3 3 -2 9 -12 12 -14 6 -15 5 -6 -5z"/>
<path d="M1604 723 c-10 -7 -13 -13 -8 -13 6 0 16 6 23 13 11 10 13 9 8 -4 -3
-9 -1 -22 4 -30 7 -12 9 -12 10 1 1 8 1 19 0 23 -1 5 3 5 9 2 6 -4 9 -13 6
-21 -4 -11 -2 -12 14 -1 24 14 27 29 5 20 -10 -3 -15 -1 -13 7 4 17 -36 19
-58 3z"/>
<path d="M1593 667 c4 -11 1 -20 -8 -24 -13 -5 -13 -7 2 -19 10 -7 23 -13 28
-13 6 0 2 4 -8 10 -15 9 -16 13 -6 25 10 12 9 17 -1 27 -10 10 -12 8 -7 -6z"/>
<path d="M1328 657 c17 -10 19 -16 10 -25 -9 -9 -7 -13 5 -18 9 -3 14 -10 11
-15 -3 -5 3 -6 12 -2 12 4 14 8 6 11 -10 3 -10 7 0 20 10 14 10 15 -2 5 -19
-17 -35 -17 -21 0 13 16 -4 37 -28 37 -11 -1 -9 -5 7 -13z"/>
<path d="M1562 658 c-7 -7 -12 -16 -12 -21 0 -5 7 -1 16 8 9 9 14 18 12 20 -2
3 -10 -1 -16 -7z"/>
<path d="M1850 661 c0 -5 5 -13 10 -16 6 -3 10 -2 10 4 0 5 -4 13 -10 16 -5 3
-10 2 -10 -4z"/>
<path d="M1905 650 c-4 -11 -12 -18 -18 -14 -7 3 -2 -4 11 -15 13 -11 22 -23
22 -26 -1 -4 2 -10 6 -13 4 -4 4 -2 1 4 -4 7 0 17 8 24 20 17 19 33 -4 47 -17
11 -21 9 -26 -7z m30 -10 c9 -15 -3 -30 -20 -24 -7 3 -11 12 -8 20 6 16 19 18
28 4z"/>
<path d="M2422 650 c-12 -12 -22 -24 -23 -28 0 -4 -2 -15 -4 -25 -2 -9 1 -15
6 -11 5 3 7 10 4 15 -4 5 6 21 20 35 31 31 28 43 -3 14z"/>
<path d="M1381 650 c11 -6 15 -20 13 -40 -4 -29 -3 -29 16 -10 24 24 26 38 3
19 -15 -12 -16 -12 -10 5 8 19 -6 36 -28 36 -5 -1 -3 -5 6 -10z"/>
<path d="M2036 645 c-9 -26 -7 -32 5 -12 6 10 9 21 6 23 -2 3 -7 -2 -11 -11z"/>
<path d="M2114 648 c6 -20 -10 -34 -17 -16 -4 9 -6 10 -6 1 -1 -17 12 -23 28
-14 11 7 11 13 1 27 -9 16 -11 16 -6 2z"/>
<path d="M2142 640 c7 -10 14 -18 15 -16 6 6 -9 36 -18 36 -5 0 -4 -9 3 -20z"/>
<path d="M2618 653 c6 -2 10 -9 6 -14 -3 -5 -1 -9 5 -9 17 0 21 18 5 24 -9 3
-19 6 -22 5 -4 0 -1 -3 6 -6z"/>
<path d="M1280 641 c0 -7 -4 -9 -10 -6 -6 4 -7 -1 -3 -11 6 -15 7 -15 15 1 6
9 7 19 4 22 -3 4 -6 1 -6 -6z"/>
<path d="M1302 643 c0 -5 -2 -16 -6 -25 -13 -28 0 -47 26 -40 20 5 21 3 11
-10 -10 -12 -10 -15 1 -15 8 0 13 7 11 16 -1 9 -11 16 -24 15 -14 0 -21 5 -21
19 0 17 2 18 18 6 14 -11 15 -11 5 0 -6 7 -9 20 -6 27 3 8 0 14 -6 14 -6 0
-10 -3 -9 -7z"/>
<path d="M1665 640 c3 -5 8 -10 11 -10 2 0 4 5 4 10 0 6 -5 10 -11 10 -5 0 -7
-4 -4 -10z"/>
<path d="M1833 629 c-2 -23 3 -25 10 -4 4 8 3 16 -1 19 -4 3 -9 -4 -9 -15z"/>
<path d="M2176 634 c-10 -25 1 -29 14 -5 6 12 7 21 1 21 -5 0 -12 -7 -15 -16z"/>
<path d="M2745 640 c-3 -5 -1 -10 4 -10 6 0 11 5 11 10 0 6 -2 10 -4 10 -3 0
-8 -4 -11 -10z"/>
<path d="M2516 627 c3 -10 9 -15 12 -12 3 3 0 11 -7 18 -10 9 -11 8 -5 -6z"/>
<path d="M2775 630 c-7 -11 22 -26 32 -16 4 3 -1 6 -11 6 -9 0 -14 5 -11 10 3
6 4 10 1 10 -3 0 -8 -5 -11 -10z"/>
<path d="M1642 614 c-7 -8 -8 -14 -3 -14 10 0 25 19 20 25 -2 1 -10 -3 -17
-11z"/>
<path d="M1857 623 c-10 -9 -9 -41 2 -47 4 -3 6 6 3 21 -3 18 -1 24 7 19 6 -4
9 -11 6 -16 -3 -5 5 -14 17 -20 21 -10 21 -10 6 3 -10 8 -15 16 -13 19 3 3 -1
10 -8 16 -8 7 -17 9 -20 5z"/>
<path d="M2479 612 c-13 -16 -13 -16 5 -2 18 14 19 13 13 -2 -3 -10 -2 -18 3
-18 12 0 13 27 1 34 -5 3 -15 -2 -22 -12z"/>
<path d="M2550 609 c-14 -10 -20 -19 -15 -19 6 0 2 -5 -7 -11 -20 -11 -24 -29
-7 -29 5 0 8 4 5 9 -3 5 1 12 10 15 8 3 13 9 10 14 -2 4 5 14 16 21 18 11 20
11 15 -3 -4 -9 -2 -16 3 -16 12 0 13 27 2 34 -4 2 -19 -4 -32 -15z"/>
<path d="M2629 610 c-13 -10 -18 -19 -11 -20 6 0 12 5 12 10 0 6 6 10 14 10 8
0 18 5 21 10 10 17 -11 11 -36 -10z"/>
<path d="M1510 610 c0 -6 7 -13 15 -16 8 -4 12 -11 8 -17 -3 -6 -1 -7 5 -3 15
9 15 9 -8 29 -11 9 -20 12 -20 7z"/>
<path d="M1561 615 c0 -5 3 -16 8 -23 7 -11 9 -10 14 3 4 9 3 14 -2 10 -5 -3
-12 1 -14 7 -3 7 -6 9 -6 3z"/>
<path d="M2675 610 c-3 -5 -2 -18 4 -27 7 -14 9 -12 8 10 -2 30 -3 31 -12 17z"/>
<path d="M2701 604 c0 -11 3 -14 6 -6 3 7 2 16 -1 19 -3 4 -6 -2 -5 -13z"/>
<path d="M2732 600 c0 -14 2 -19 5 -12 2 6 2 18 0 25 -3 6 -5 1 -5 -13z"/>
<path d="M1220 600 c-18 -12 -2 -12 25 0 13 6 15 9 5 9 -8 0 -22 -4 -30 -9z"/>
<path d="M1480 595 c-7 -9 -11 -17 -9 -20 3 -2 10 5 17 15 14 24 10 26 -8 5z"/>
<path d="M1950 595 c0 -8 2 -15 4 -15 2 0 6 7 10 15 3 8 1 15 -4 15 -6 0 -10
-7 -10 -15z"/>
<path d="M2010 600 c0 -5 5 -10 10 -10 6 0 10 5 10 10 0 6 -4 10 -10 10 -5 0
-10 -4 -10 -10z"/>
<path d="M2130 600 c0 -5 5 -10 10 -10 6 0 10 5 10 10 0 6 -4 10 -10 10 -5 0
-10 -4 -10 -10z"/>
<path d="M2232 596 c7 -8 15 -12 17 -11 5 6 -10 25 -20 25 -5 0 -4 -6 3 -14z"/>
<path d="M2276 595 c4 -8 8 -15 10 -15 2 0 4 7 4 15 0 8 -4 15 -10 15 -5 0 -7
-7 -4 -15z"/>
<path d="M2323 603 c-7 -2 -13 -9 -13 -15 0 -7 5 -7 13 1 8 6 17 8 20 4 4 -3
7 -1 7 5 0 13 -7 14 -27 5z"/>
<path d="M2815 600 c-3 -5 -1 -10 4 -10 6 0 11 5 11 10 0 6 -2 10 -4 10 -3 0
-8 -4 -11 -10z"/>
<path d="M1595 589 c-4 -6 -5 -12 -2 -15 2 -3 7 2 10 11 7 17 1 20 -8 4z"/>
<path d="M2157 586 c-4 -11 -5 -21 -2 -24 3 -3 5 0 5 7 0 7 4 10 9 6 5 -3 13
0 17 6 4 7 3 9 -4 5 -5 -3 -12 -1 -14 6 -3 7 -7 5 -11 -6z"/>
<path d="M1495 579 c-4 -6 -5 -12 -2 -15 2 -3 7 2 10 11 7 17 1 20 -8 4z"/>
<path d="M2070 580 c0 -5 5 -10 10 -10 6 0 10 5 10 10 0 6 -4 10 -10 10 -5 0
-10 -4 -10 -10z"/>
<path d="M2419 588 c-4 -15 -6 -50 -3 -40 3 6 10 10 15 6 5 -3 9 0 9 5 0 6 -5
11 -11 11 -5 0 -7 5 -4 10 3 6 4 10 1 10 -3 0 -6 -1 -7 -2z"/>
<path d="M2455 580 c-4 -6 1 -7 11 -3 12 4 15 3 10 -5 -5 -8 -2 -10 9 -5 13 5
14 7 3 14 -17 11 -26 11 -33 -1z"/>
<path d="M2750 580 c0 -5 7 -7 15 -4 8 4 15 8 15 10 0 2 -7 4 -15 4 -8 0 -15
-4 -15 -10z"/>
<path d="M1180 576 c0 -2 7 -6 15 -10 8 -3 15 -1 15 4 0 6 -7 10 -15 10 -8 0
-15 -2 -15 -4z"/>
<path d="M1230 576 c0 -3 9 -10 20 -16 11 -6 20 -8 20 -6 0 3 -9 10 -20 16
-11 6 -20 8 -20 6z"/>
<path d="M2026 563 c-6 -14 -5 -15 5 -6 7 7 10 15 7 18 -3 3 -9 -2 -12 -12z"/>
<path d="M2110 570 c-9 -6 -10 -10 -3 -10 6 0 15 5 18 10 8 12 4 12 -15 0z"/>
<path d="M2351 564 c0 -11 3 -14 6 -6 3 7 2 16 -1 19 -3 4 -6 -2 -5 -13z"/>
<path d="M2549 563 c-13 -17 -13 -17 6 -3 11 8 22 16 24 17 2 2 0 3 -6 3 -6 0
-17 -8 -24 -17z"/>
<path d="M2598 573 c7 -3 16 -2 19 1 4 3 -2 6 -13 5 -11 0 -14 -3 -6 -6z"/>
<path d="M2687 560 c-14 -13 -15 -20 -6 -26 8 -5 10 -3 4 6 -6 9 -4 12 6 8 10
-4 15 1 16 13 2 23 3 23 -20 -1z"/>
<path d="M1441 556 c-9 -10 -8 -15 3 -19 11 -4 13 -1 9 10 -5 12 -3 14 7 8 9
-5 11 -4 6 3 -9 15 -11 15 -25 -2z"/>
<path d="M1510 561 c0 -6 4 -13 10 -16 6 -3 7 1 4 9 -7 18 -14 21 -14 7z"/>
<path d="M1545 561 c-3 -6 -1 -11 5 -11 6 0 9 -4 6 -8 -3 -5 1 -9 9 -9 12 0
12 3 3 16 -7 9 -13 17 -14 19 -1 2 -5 -1 -9 -7z"/>
<path d="M1874 559 c-4 -7 -3 -9 4 -5 5 3 13 0 15 -6 4 -9 6 -10 6 -1 1 17
-16 25 -25 12z"/>
<path d="M1920 560 c-12 -7 -10 -9 8 -7 12 0 22 5 22 9 0 11 -12 10 -30 -2z"/>
<path d="M1971 567 c2 -1 14 -11 27 -21 12 -11 22 -16 22 -13 0 10 -31 37 -42
37 -6 0 -9 -1 -7 -3z"/>
<path d="M2210 557 c0 -4 12 -5 26 -3 38 7 40 14 5 12 -17 0 -31 -4 -31 -9z"/>
<path d="M2300 560 c8 -5 20 -10 25 -10 6 0 3 5 -5 10 -8 5 -19 10 -25 10 -5
0 -3 -5 5 -10z"/>
<path d="M2650 559 c0 -5 5 -7 10 -4 6 3 10 8 10 11 0 2 -4 4 -10 4 -5 0 -10
-5 -10 -11z"/>
<path d="M2764 559 c-3 -6 -1 -16 5 -22 9 -9 10 -7 5 7 -5 13 -4 17 4 12 7 -4
12 -2 12 3 0 14 -17 14 -26 0z"/>
<path d="M1188 543 c7 -3 16 -2 19 1 4 3 -2 6 -13 5 -11 0 -14 -3 -6 -6z"/>
<path d="M1399 548 c-8 -21 -2 -61 9 -71 13 -10 14 -9 7 3 -13 20 -13 53 0 62
6 5 6 8 -2 8 -7 0 -13 -1 -14 -2z"/>
<path d="M1965 542 c-12 -8 -13 -28 -2 -36 4 -3 5 -3 2 0 -2 4 0 15 6 25 11
21 9 23 -6 11z"/>
<path d="M2158 543 c7 -3 16 -2 19 1 4 3 -2 6 -13 5 -11 0 -14 -3 -6 -6z"/>
<path d="M2270 530 c4 -8 10 -18 12 -21 1 -4 -6 -17 -17 -30 l-20 -24 22 18
c11 10 20 26 18 35 -1 9 1 22 6 27 5 7 1 11 -11 11 -13 0 -16 -4 -10 -16z"/>
<path d="M2484 539 c-3 -6 0 -17 8 -25 13 -13 15 -13 15 0 0 8 -5 12 -10 9 -6
-4 -8 0 -4 10 7 19 2 23 -9 6z"/>
<path d="M2565 542 c-5 -4 -11 -14 -13 -22 -2 -8 0 -12 4 -8 4 4 12 3 19 -2 8
-7 12 -5 12 5 0 8 -5 11 -10 8 -6 -4 -8 0 -4 10 7 19 6 20 -8 9z"/>
<path d="M2874 536 c1 -8 5 -18 8 -22 4 -3 5 1 4 10 -1 8 -5 18 -8 22 -4 3 -5
-1 -4 -10z"/>
<path d="M1248 532 c-17 -7 -17 -8 0 -18 15 -10 18 -8 18 7 0 11 0 19 -1 18 0
0 -8 -4 -17 -7z"/>
<path d="M1495 530 c-4 -6 -11 -8 -16 -5 -5 4 -9 2 -9 -4 0 -5 8 -9 18 -8 10
0 19 7 19 14 0 16 -4 16 -12 3z"/>
<path d="M1855 529 c-4 -6 -14 -8 -24 -4 -13 5 -14 4 -3 -6 10 -11 15 -10 29
4 10 9 14 17 11 17 -4 0 -10 -5 -13 -11z"/>
<path d="M2094 519 c0 -14 3 -16 16 -6 8 6 16 12 18 13 1 1 -5 4 -15 6 -13 4
-19 0 -19 -13z"/>
<path d="M2633 525 c0 -8 4 -15 9 -15 4 0 8 4 8 9 0 6 -4 12 -8 15 -5 3 -9 -1
-9 -9z"/>
<path d="M1159 528 c-5 -18 -6 -38 -1 -34 7 8 12 36 6 36 -2 0 -4 -1 -5 -2z"/>
<path d="M1590 519 c0 -5 5 -7 10 -4 6 3 10 8 10 11 0 2 -4 4 -10 4 -5 0 -10
-5 -10 -11z"/>
<path d="M1877 512 c-15 -16 -15 -19 -2 -19 8 0 13 3 10 5 -3 3 0 11 6 19 17
20 5 16 -14 -5z"/>
<path d="M2160 525 c0 -2 6 -8 13 -14 10 -8 14 -7 14 2 0 8 -6 14 -14 14 -7 0
-13 -1 -13 -2z"/>
<path d="M2416 518 c3 -5 10 -6 15 -3 13 9 11 12 -6 12 -8 0 -12 -4 -9 -9z"/>
<path d="M2714 505 c0 -28 8 -24 13 5 2 11 -1 20 -5 20 -4 0 -8 -11 -8 -25z"/>
<path d="M2839 528 c-7 -25 -3 -40 14 -55 22 -18 22 -18 6 2 -9 11 -15 28 -14
38 3 13 -2 26 -6 15z"/>
<path d="M1110 516 c0 -2 8 -10 18 -17 15 -13 16 -12 3 4 -13 16 -21 21 -21
13z"/>
<path d="M1309 503 c-13 -16 -12 -17 4 -4 16 13 21 21 13 21 -2 0 -10 -8 -17
-17z"/>
<path d="M1793 507 c0 -8 6 -14 14 -14 9 0 10 4 2 14 -6 7 -12 13 -14 13 -1 0
-2 -6 -2 -13z"/>
<path d="M2350 516 c0 -2 8 -10 18 -17 15 -13 16 -12 3 4 -13 16 -21 21 -21
13z"/>
<path d="M2394 506 c1 -8 5 -18 8 -22 4 -3 5 1 4 10 -1 8 -5 18 -8 22 -4 3 -5
-1 -4 -10z"/>
<path d="M2790 516 c0 -2 8 -10 18 -17 15 -13 16 -12 3 4 -13 16 -21 21 -21
13z"/>
<path d="M2949 503 c-13 -16 -12 -17 4 -4 16 13 21 21 13 21 -2 0 -10 -8 -17
-17z"/>
<path d="M1199 493 c-13 -16 -12 -17 4 -4 16 13 21 21 13 21 -2 0 -10 -8 -17
-17z"/>
<path d="M1430 496 c7 -7 13 -7 20 0 6 6 3 10 -10 10 -13 0 -16 -4 -10 -10z"/>
<path d="M2140 506 c0 -2 8 -10 18 -17 15 -13 16 -12 3 4 -13 16 -21 21 -21
13z"/>
<path d="M2443 498 c-11 -19 -13 -39 -1 -32 5 3 7 9 4 12 -3 3 -1 11 5 19 6 7
9 13 6 13 -3 0 -9 -6 -14 -12z"/>
<path d="M2670 496 c7 -7 13 -7 20 0 6 6 3 10 -10 10 -13 0 -16 -4 -10 -10z"/>
<path d="M1096 487 c3 -10 9 -15 12 -12 3 3 0 11 -7 18 -10 9 -11 8 -5 -6z"/>
<path d="M1494 489 c-3 -6 -2 -15 3 -20 5 -5 9 -1 9 11 0 23 -2 24 -12 9z"/>
<path d="M2336 487 c3 -10 9 -15 12 -12 3 3 0 11 -7 18 -10 9 -11 8 -5 -6z"/>
<path d="M2533 487 c0 -8 12 -13 28 -13 15 0 26 3 23 8 -3 5 -10 6 -15 2 -5
-3 -16 -1 -23 5 -9 8 -13 7 -13 -2z"/>
<path d="M2614 486 c1 -8 5 -18 8 -22 4 -3 5 1 4 10 -1 8 -5 18 -8 22 -4 3 -5
-1 -4 -10z"/>
<path d="M2773 485 c0 -8 4 -12 9 -9 5 3 6 10 3 15 -9 13 -12 11 -12 -6z"/>
<path d="M2895 489 c-4 -6 -5 -12 -2 -15 2 -3 7 2 10 11 7 17 1 20 -8 4z"/>
<path d="M1234 482 c4 -3 14 -7 22 -8 9 -1 13 0 10 4 -4 3 -14 7 -22 8 -9 1
-13 0 -10 -4z"/>
<path d="M2086 482 c-3 -5 1 -9 9 -9 8 0 12 4 9 9 -3 4 -7 8 -9 8 -2 0 -6 -4
-9 -8z"/>
<path d="M2493 475 c0 -8 4 -12 9 -9 5 3 6 10 3 15 -9 13 -12 11 -12 -6z"/>
<path d="M2185 460 c-3 -6 1 -7 9 -4 18 7 21 14 7 14 -6 0 -13 -4 -16 -10z"/>
<path d="M1270 456 c0 -2 8 -10 18 -17 15 -13 16 -12 3 4 -13 16 -21 21 -21
13z"/>
<path d="M2113 445 c0 -8 4 -12 9 -9 5 3 6 10 3 15 -9 13 -12 11 -12 -6z"/>
<path d="M1990 441 c0 -6 4 -13 10 -16 6 -3 7 1 4 9 -7 18 -14 21 -14 7z"/>
<path d="M2973 431 c0 -11 5 -18 9 -15 4 3 5 11 1 19 -7 21 -12 19 -10 -4z"/>
<path d="M3017 435 c-4 -8 -3 -16 1 -19 4 -3 9 4 9 15 2 23 -3 25 -10 4z"/>
<path d="M1413 425 c0 -8 4 -12 9 -9 5 3 6 10 3 15 -9 13 -12 11 -12 -6z"/>
<path d="M994 422 c4 -3 14 -7 22 -8 9 -1 13 0 10 4 -4 3 -14 7 -22 8 -9 1
-13 0 -10 -4z"/>
<path d="M1055 419 c-3 -4 2 -6 10 -5 21 3 28 13 10 13 -9 0 -18 -4 -20 -8z"/>
<path d="M1135 420 c3 -5 8 -10 11 -10 2 0 4 5 4 10 0 6 -5 10 -11 10 -5 0 -7
-4 -4 -10z"/>
<path d="M1490 419 c0 -5 5 -7 10 -4 6 3 10 8 10 11 0 2 -4 4 -10 4 -5 0 -10
-5 -10 -11z"/>
<path d="M1846 422 c-3 -5 1 -9 9 -9 8 0 12 4 9 9 -3 4 -7 8 -9 8 -2 0 -6 -4
-9 -8z"/>
<path d="M2055 420 c-3 -5 -1 -10 4 -10 6 0 11 5 11 10 0 6 -2 10 -4 10 -3 0
-8 -4 -11 -10z"/>
<path d="M2494 422 c4 -3 14 -7 22 -8 9 -1 13 0 10 4 -4 3 -14 7 -22 8 -9 1
-13 0 -10 -4z"/>
<path d="M2595 419 c-3 -4 2 -6 10 -5 21 3 28 13 10 13 -9 0 -18 -4 -20 -8z"/>
<path d="M2835 419 c-3 -4 2 -6 10 -5 21 3 28 13 10 13 -9 0 -18 -4 -20 -8z"/>
<path d="M3053 415 c0 -8 4 -12 9 -9 5 3 6 10 3 15 -9 13 -12 11 -12 -6z"/>
<path d="M2713 375 c0 -8 4 -12 9 -9 5 3 6 10 3 15 -9 13 -12 11 -12 -6z"/>
<path d="M3035 331 c-3 -5 -2 -12 3 -15 5 -3 9 1 9 9 0 17 -3 19 -12 6z"/>
<path d="M2105 319 c-3 -4 2 -6 10 -5 21 3 28 13 10 13 -9 0 -18 -4 -20 -8z"/>
<path d="M2306 278 c3 -5 10 -6 15 -3 13 9 11 12 -6 12 -8 0 -12 -4 -9 -9z"/>
</g>
</svg>
